<svg width="22" height="22" viewBox="0 0 22 22" fill="none" xmlns="http://www.w3.org/2000/svg">
<path d="M13.5978 20.6738C12.6406 20.9605 11.6215 21.1194 10.5636 21.1194C4.73152 21.1194 0 16.3995 0 10.5636C0 4.72764 4.73152 0 10.5636 0C11.6215 0 12.6406 0.15888 13.6055 0.445639C9.39329 1.88331 6.37845 5.87081 6.37845 10.5636C6.37845 15.2563 9.39329 19.2361 13.5939 20.6738H13.5978Z" fill="url(#paint0_linear_29_3580)"/>
<path d="M13.5978 20.6738C12.6406 20.9605 11.6215 21.1194 10.5636 21.1194C4.73152 21.1194 0 16.3995 0 10.5636C0 4.72764 4.73152 0 10.5636 0C11.6215 0 12.6406 0.15888 13.6055 0.445639C9.39329 1.88331 6.37845 5.87081 6.37845 10.5636C6.37845 15.2563 9.39329 19.2361 13.5939 20.6738H13.5978Z" fill="url(#paint1_linear_29_3580)" fill-opacity="0.2"/>
<path d="M21.1195 10.5636C21.1195 14.152 19.3292 17.3257 16.5856 19.2361C13.8963 17.2986 12.1409 14.1365 12.1409 10.5636C12.1409 6.99077 13.8924 3.82092 16.5934 1.89111C19.3292 3.80155 21.1195 6.97527 21.1195 10.5636Z" fill="url(#paint2_linear_29_3580)"/>
<path d="M21.1195 10.5636C21.1195 14.152 19.3292 17.3257 16.5856 19.2361C13.8963 17.2986 12.1409 14.1365 12.1409 10.5636C12.1409 6.99077 13.8924 3.82092 16.5934 1.89111C19.3292 3.80155 21.1195 6.97527 21.1195 10.5636Z" fill="url(#paint3_linear_29_3580)" fill-opacity="0.2"/>
<path d="M21.1195 10.5636C21.1195 14.152 19.3292 17.3257 16.5856 19.2361C13.8963 17.2986 12.1409 14.1365 12.1409 10.5636C12.1409 6.99077 13.8924 3.82092 16.5934 1.89111C19.3292 3.80155 21.1195 6.97527 21.1195 10.5636Z" fill="url(#paint4_linear_29_3580)"/>
<path d="M21.1195 10.5636C21.1195 14.152 19.3292 17.3257 16.5856 19.2361C13.8963 17.2986 12.1409 14.1365 12.1409 10.5636C12.1409 6.99077 13.8924 3.82092 16.5934 1.89111C19.3292 3.80155 21.1195 6.97527 21.1195 10.5636Z" fill="url(#paint5_linear_29_3580)" fill-opacity="0.2"/>
<path d="M21.1195 10.5636C21.1195 14.152 19.3292 17.3257 16.5856 19.2361C13.8963 17.2986 12.1409 14.1365 12.1409 10.5636C12.1409 6.99077 13.8924 3.82092 16.5934 1.89111C19.3292 3.80155 21.1195 6.97527 21.1195 10.5636Z" fill="url(#paint6_linear_29_3580)"/>
<path d="M21.1195 10.5636C21.1195 14.152 19.3292 17.3257 16.5856 19.2361C13.8963 17.2986 12.1409 14.1365 12.1409 10.5636C12.1409 6.99077 13.8924 3.82092 16.5934 1.89111C19.3292 3.80155 21.1195 6.97527 21.1195 10.5636Z" fill="url(#paint7_linear_29_3580)" fill-opacity="0.2"/>
<defs>
<linearGradient id="paint0_linear_29_3580" x1="6.80277" y1="0" x2="6.80277" y2="21.1194" gradientUnits="userSpaceOnUse">
<stop stop-color="#E5E4F3"/>
<stop offset="1" stop-color="#8483FF"/>
</linearGradient>
<linearGradient id="paint1_linear_29_3580" x1="1.93266" y1="10.5" x2="11.3321" y2="11.1264" gradientUnits="userSpaceOnUse">
<stop stop-color="#A1E3EC"/>
<stop offset="1" stop-color="#94CFDF"/>
</linearGradient>
<linearGradient id="paint2_linear_29_3580" x1="16.6302" y1="1.89111" x2="16.6302" y2="19.2361" gradientUnits="userSpaceOnUse">
<stop stop-color="#E5E4F3"/>
<stop offset="1" stop-color="#8483FF"/>
</linearGradient>
<linearGradient id="paint3_linear_29_3580" x1="13.4163" y1="10.5146" x2="19.6289" y2="10.8473" gradientUnits="userSpaceOnUse">
<stop stop-color="#A1E3EC"/>
<stop offset="1" stop-color="#94CFDF"/>
</linearGradient>
<linearGradient id="paint4_linear_29_3580" x1="16.6302" y1="1.89111" x2="16.6302" y2="19.2361" gradientUnits="userSpaceOnUse">
<stop stop-color="#E5E4F3"/>
<stop offset="1" stop-color="#8483FF"/>
</linearGradient>
<linearGradient id="paint5_linear_29_3580" x1="13.4163" y1="10.5146" x2="19.6289" y2="10.8473" gradientUnits="userSpaceOnUse">
<stop stop-color="#A1E3EC"/>
<stop offset="1" stop-color="#94CFDF"/>
</linearGradient>
<linearGradient id="paint6_linear_29_3580" x1="16.6302" y1="1.89111" x2="16.6302" y2="19.2361" gradientUnits="userSpaceOnUse">
<stop stop-color="#E5E4F3"/>
<stop offset="1" stop-color="#8483FF"/>
</linearGradient>
<linearGradient id="paint7_linear_29_3580" x1="13.4163" y1="10.5146" x2="19.6289" y2="10.8473" gradientUnits="userSpaceOnUse">
<stop stop-color="#A1E3EC"/>
<stop offset="1" stop-color="#94CFDF"/>
</linearGradient>
</defs>
</svg>
